<?xml version="1.0" encoding="utf-8"?>
<!-- Generator: Adobe Illustrator 17.0.0, SVG Export Plug-In . SVG Version: 6.00 Build 0)  -->
<!DOCTYPE svg PUBLIC "-//W3C//DTD SVG 1.1//EN" "http://www.w3.org/Graphics/SVG/1.1/DTD/svg11.dtd">
<svg version="1.1" id="Layer_1" xmlns="http://www.w3.org/2000/svg" xmlns:xlink="http://www.w3.org/1999/xlink" x="0px" y="0px"
	 width="316.667px" height="74.359px" viewBox="0 0 316.667 74.359" enable-background="new 0 0 316.667 74.359"
	 xml:space="preserve">
<g>
	<g>
		<path fill="#4D345E" d="M98.523,43.688l-4.634-16.819h-0.12l-4.554,16.819h-5.913L76.95,18.439c-0.16-0.479-0.36-0.64-0.879-0.719
			l-2.197-0.399l0.399-2.557h10.906v2.557l-3.476,0.36l4.874,21.294h0.16l4.994-18.577h4.914l5.114,18.816h0.2l4.914-21.533
			l-3.516-0.36l0.4-2.557h9.948v2.557l-1.997,0.36c-0.559,0.119-0.759,0.199-0.919,0.759l-6.112,25.249L98.523,43.688L98.523,43.688
			z"/>
		<path fill="#4D345E" d="M130.12,43.688v-2.557l3.276-0.36l-1.838-5.393h-10.667l-1.838,5.393l3.196,0.36v2.557h-9.988v-2.517
			l1.718-0.44c0.479-0.119,0.839-0.28,0.999-0.759l8.789-25.209h5.633l8.829,25.289c0.16,0.48,0.48,0.56,0.959,0.679l1.838,0.44
			v2.517H130.12z M126.325,19.198h-0.12l-4.275,12.664h8.629L126.325,19.198z"/>
		<path fill="#4D345E" d="M145.778,43.688v-2.597l4.115-0.28c0.56-0.04,0.639-0.199,0.639-0.799V18.199h-5.353
			c-0.439,0-0.559,0.04-0.639,0.439l-0.64,3.475h-3.356v-7.35h24.65v7.35h-3.316l-0.639-3.475c-0.08-0.4-0.2-0.439-0.64-0.439
			h-5.393v21.813c0,0.559,0.04,0.719,0.639,0.759l4.395,0.32v2.597H145.778z"/>
		<path fill="#4D345E" d="M169.066,43.688v-2.557l2.517-0.28c0.559-0.08,0.639-0.2,0.639-0.799V18.439
			c0-0.599-0.08-0.759-0.639-0.799l-2.517-0.28v-2.596h20.535v7.191l-3.396-0.16l-0.559-3.076c-0.08-0.4-0.24-0.519-0.68-0.519
			h-8.07v9.189h10.148v3.475h-10.148v9.428h8.949c0.44,0,0.56-0.04,0.64-0.44l0.639-3.516h3.356v7.351L169.066,43.688
			L169.066,43.688z"/>
		<path fill="#4D345E" d="M209.974,43.688v-2.517l2.637-0.36l-2.996-7.551c-0.48-1.238-1.119-1.718-2.477-1.718h-3.396v8.47
			c0,0.639,0.04,0.719,0.639,0.799l2.557,0.32v2.557h-10.986v-2.557l2.517-0.28c0.559-0.08,0.639-0.2,0.639-0.799V18.439
			c0-0.599-0.08-0.759-0.639-0.799l-2.517-0.28v-2.596h12.784c7.191,0,9.109,3.915,9.109,7.91c0,4.195-2.237,6.472-5.393,7.711
			c1.239,0.599,1.638,1.558,2.396,3.475l2.397,6.113c0.32,0.599,0.599,0.679,1.199,0.759l2.437,0.4v2.557L209.974,43.688
			L209.974,43.688z M206.698,28.147c3.396,0,6.312-0.919,6.312-5.273c0-3.675-2.237-4.635-6.592-4.635h-2.677v9.908H206.698z"/>
		<path fill="#4D345E" d="M223.873,43.688v-2.557l2.517-0.28c0.559-0.08,0.639-0.2,0.639-0.799V18.439
			c0-0.599-0.08-0.759-0.639-0.799l-2.517-0.28v-2.596h11.785v2.596l-3.315,0.32c-0.599,0.04-0.64,0.199-0.64,0.759v21.853h8.949
			c0.44,0,0.559-0.04,0.639-0.44l0.64-3.795h3.356v7.631H223.873z"/>
		<path fill="#4D345E" d="M248.48,29.146c0-8.47,4.794-14.902,14.062-14.902c9.268,0,13.304,6.432,13.304,14.462
			c0,9.388-4.555,15.461-13.863,15.461C252.555,44.167,248.48,37.935,248.48,29.146z M271.052,29.066
			c0-7.351-3.276-10.947-8.549-10.947c-5.393,0-9.189,3.636-9.189,10.986c0,7.711,3.476,11.186,8.829,11.186
			C267.417,40.292,271.052,36.976,271.052,29.066z"/>
		<path fill="#4D345E" d="M279.958,29.146c0-8.47,4.794-14.902,14.062-14.902s13.304,6.432,13.304,14.462
			c0,9.388-4.555,15.461-13.863,15.461C284.033,44.167,279.958,37.935,279.958,29.146z M302.531,29.066
			c0-7.351-3.276-10.947-8.549-10.947c-5.393,0-9.189,3.636-9.189,10.986c0,7.711,3.476,11.186,8.829,11.186
			C298.895,40.292,302.531,36.976,302.531,29.066z"/>
	</g>
	<g>
		<path fill="#414142" d="M80.385,59.162c0-2.96,1.58-4.788,4.253-4.788c1.94,0,3.296,0.983,3.433,3.147l-1.343,0.124
			c-0.149-1.356-0.759-2.015-2.102-2.015c-1.704,0-2.749,1.082-2.749,3.433c0,2.438,0.945,3.396,2.625,3.396
			c1.343,0,1.965-0.647,2.226-1.791l1.293,0.249c-0.311,2.039-2.002,2.773-3.594,2.773C81.529,63.69,80.385,61.887,80.385,59.162z"
			/>
		<path fill="#414142" d="M94.97,59.063c0-2.686,1.48-4.689,4.291-4.689s4.042,2.003,4.042,4.503c0,2.923-1.405,4.813-4.229,4.813
			C96.214,63.69,94.97,61.75,94.97,59.063z M101.811,59.001c0-2.289-1.007-3.358-2.587-3.358c-1.617,0-2.749,1.095-2.749,3.395
			c0,2.339,1.057,3.408,2.662,3.408C100.704,62.446,101.811,61.426,101.811,59.001z"/>
		<path fill="#414142" d="M116.222,60.282v-5.746h1.455v5.895c0,2.252-1.331,3.259-3.483,3.259c-2.376,0-3.371-1.095-3.371-3.296
			v-5.857h1.455v5.709c0,1.567,0.597,2.226,1.99,2.226C115.65,62.471,116.222,61.887,116.222,60.282z"/>
		<path fill="#414142" d="M131.106,63.541l-4.042-7.077v7.077h-1.343v-9.005h1.828l3.943,7.04v-7.04h1.331v9.005H131.106z"/>
		<path fill="#414142" d="M142.01,56.774c0,2.177,4.813,0.933,4.813,4.192c0,1.952-1.567,2.723-3.283,2.723
			c-1.779,0-3.159-0.634-3.358-2.674l1.343-0.2c0.199,0.921,0.585,1.716,2.04,1.716c0.896,0,1.804-0.298,1.804-1.367
			c0-2.276-4.813-0.808-4.813-4.217c0-1.629,1.355-2.575,3.134-2.575c1.58,0,2.886,0.585,3.06,2.587l-1.343,0.162
			c-0.125-0.858-0.473-1.568-1.729-1.568C142.494,55.556,142.01,56.053,142.01,56.774z"/>
		<path fill="#414142" d="M155.824,62.322h4.179v1.219h-5.634v-9.005h5.448v1.218h-3.993v2.662h3.744v1.207h-3.744V62.322z"/>
		<path fill="#414142" d="M168.979,62.31h3.98v1.231h-5.435v-9.005h1.455V62.31z"/>
		<path fill="#414142" d="M181.886,63.541h-1.455v-9.005h1.455V63.541z"/>
		<path fill="#414142" d="M195.403,63.541l-4.042-7.077v7.077h-1.343v-9.005h1.828l3.943,7.04v-7.04h1.33v9.005H195.403z"/>
		<path fill="#414142" d="M211.22,62.372c-0.349,0.783-1.455,1.318-2.662,1.318c-2.699,0-3.831-1.878-3.831-4.528
			c0-2.997,1.554-4.788,4.279-4.788c1.915,0,3.258,0.87,3.42,3.072l-1.355,0.15c-0.124-1.269-0.734-1.991-2.102-1.991
			c-1.779,0-2.736,1.257-2.736,3.421c0,2.55,1.007,3.445,2.649,3.445c1.442,0,2.176-0.945,2.176-1.927v-0.585h-2.102v-1.094h3.507
			v4.677h-1.069L211.22,62.372z"/>
		<path fill="#414142" d="M228.291,59.162c0-2.96,1.579-4.788,4.253-4.788c1.941,0,3.296,0.983,3.433,3.147l-1.343,0.124
			c-0.149-1.356-0.758-2.015-2.102-2.015c-1.704,0-2.749,1.082-2.749,3.433c0,2.438,0.946,3.396,2.625,3.396
			c1.344,0,1.965-0.647,2.226-1.791l1.294,0.249c-0.311,2.039-2.003,2.773-3.595,2.773C229.434,63.69,228.291,61.887,228.291,59.162
			z"/>
		<path fill="#414142" d="M244.853,62.322h4.179v1.219h-5.634v-9.005h5.448v1.218h-3.992v2.662h3.743v1.207h-3.743L244.853,62.322
			L244.853,62.322z"/>
		<path fill="#414142" d="M261.939,63.541l-4.042-7.077v7.077h-1.344v-9.005h1.829l3.943,7.04v-7.04h1.331v9.005H261.939z"/>
		<path fill="#414142" d="M273.539,63.541v-7.786h-2.699v-1.218h6.829v1.218h-2.674v7.786H273.539z"/>
		<path fill="#414142" d="M286.309,62.322h4.179v1.219h-5.634v-9.005h5.448v1.218h-3.992v2.662h3.744v1.207h-3.744L286.309,62.322
			L286.309,62.322z"/>
		<path fill="#414142" d="M304.688,63.541h-1.579l-1.94-3.619h-1.717v3.619h-1.443v-9.005h3.259c2.239,0,2.936,1.218,2.936,2.487
			c0,1.343-0.672,2.139-1.667,2.525L304.688,63.541z M300.857,58.752c1.058,0,1.841-0.348,1.841-1.629
			c0-1.07-0.696-1.393-1.878-1.393h-1.369v3.022C299.451,58.752,300.857,58.752,300.857,58.752z"/>
	</g>
	<path fill="#674076" d="M59.606,21.187c-0.768-0.921-1.599-1.786-2.484-2.593C58.007,19.401,58.837,20.267,59.606,21.187z"/>
	<path fill="#674076" d="M56.051,17.664c-1.307-1.07-2.717-2.016-4.214-2.821l0,0C53.334,15.649,54.745,16.595,56.051,17.664z"/>
	<polygon fill="#74C9B9" points="52.494,23.218 47.945,7.128 49.853,13.879 	"/>
	<path fill="#674076" d="M26.516,25.444c-0.216,0.214-0.427,0.435-0.632,0.66C26.089,25.879,26.3,25.659,26.516,25.444
		L26.516,25.444z"/>
	<path fill="#4D345E" d="M52.494,23.218l-2.64-9.339l-1.908-6.751L33.544,21.09c1.677-0.566,3.463-0.899,5.325-0.954
		c5.854-0.173,11.144,2.424,14.621,6.601L52.494,23.218z"/>
	<path fill="#30B89C" d="M65.128,43.493c0.427-2.012,0.628-4.105,0.565-6.253c-0.016-0.548-0.055-1.089-0.104-1.628
		c-0.014-0.159-0.033-0.317-0.05-0.475c-0.044-0.4-0.096-0.798-0.158-1.192c-0.023-0.151-0.045-0.302-0.071-0.451
		c-0.091-0.526-0.194-1.048-0.315-1.562c-0.005-0.019-0.011-0.038-0.015-0.057c-0.119-0.498-0.255-0.989-0.402-1.474
		c-0.042-0.136-0.085-0.27-0.128-0.405c-0.127-0.395-0.262-0.787-0.407-1.174c-0.043-0.113-0.083-0.228-0.127-0.341
		c-0.387-0.994-0.833-1.958-1.333-2.888c-0.049-0.091-0.099-0.18-0.149-0.271c-0.226-0.408-0.46-0.81-0.706-1.204
		c-0.035-0.055-0.068-0.112-0.103-0.167c-0.585-0.921-1.225-1.802-1.916-2.64c-0.034-0.042-0.069-0.083-0.104-0.124
		c-0.769-0.92-1.599-1.786-2.484-2.593c-0.341-0.311-0.688-0.616-1.045-0.909c-0.008-0.007-0.017-0.014-0.025-0.021
		c-1.307-1.069-2.717-2.015-4.214-2.821l5.109,18.323c-0.002-0.006-0.004-0.012-0.006-0.018c0.002,0.007,0.005,0.015,0.008,0.023
		c0.032,0.108,0.061,0.217,0.091,0.326c0.02,0.072,0.041,0.143,0.06,0.215c0.024,0.091,0.048,0.181,0.071,0.272
		c0.077,0.308,0.146,0.619,0.208,0.933c0.002,0.008,0.004,0.016,0.005,0.024c0.057,0.291,0.105,0.585,0.147,0.88
		c0.005,0.035,0.012,0.068,0.016,0.103c0.037,0.269,0.066,0.542,0.091,0.815c0.005,0.058,0.013,0.115,0.018,0.173
		c0.027,0.325,0.046,0.653,0.056,0.983c0.3,10.108-7.652,18.545-17.761,18.845c-10.106,0.3-18.543-7.652-18.842-17.76
		c-0.01-0.322-0.01-0.643-0.003-0.962c0.002-0.106,0.01-0.21,0.015-0.316c0.008-0.213,0.016-0.428,0.032-0.64
		c0.008-0.116,0.023-0.23,0.034-0.346c0.019-0.2,0.036-0.399,0.062-0.597c0.015-0.117,0.035-0.232,0.052-0.349
		c0.029-0.194,0.056-0.389,0.091-0.582c0.02-0.112,0.044-0.223,0.067-0.334c0.039-0.196,0.077-0.391,0.123-0.583
		c0.024-0.105,0.052-0.208,0.079-0.312c0.05-0.197,0.101-0.395,0.157-0.591c0.028-0.096,0.058-0.191,0.088-0.287
		c0.062-0.202,0.125-0.402,0.194-0.601c0.029-0.087,0.062-0.172,0.093-0.258c0.074-0.206,0.151-0.41,0.232-0.612
		c0.031-0.077,0.063-0.152,0.095-0.229c0.088-0.21,0.179-0.419,0.274-0.625c0.03-0.065,0.062-0.13,0.093-0.196
		c0.102-0.214,0.208-0.427,0.319-0.637c0.029-0.055,0.058-0.11,0.088-0.165c0.118-0.218,0.24-0.434,0.366-0.647
		c0.026-0.044,0.052-0.088,0.079-0.132c0.134-0.222,0.273-0.441,0.417-0.657c0.022-0.033,0.044-0.066,0.066-0.099
		c0.152-0.225,0.309-0.447,0.47-0.666c0.016-0.022,0.032-0.044,0.049-0.066c0.171-0.228,0.347-0.452,0.528-0.673
		c0.009-0.011,0.018-0.023,0.028-0.034c0.19-0.23,0.385-0.456,0.586-0.676c0.001-0.002,0.003-0.004,0.005-0.006
		c0.205-0.225,0.416-0.446,0.632-0.66l-0.034-0.01l14.214-13.683c-0.005-0.001-0.01-0.001-0.014-0.001
		c-0.321-0.015-0.644-0.026-0.968-0.032c-0.363-0.006-0.727-0.006-1.094,0.005c-11.624,0.344-21.257,8.183-24.42,18.743
		l-4.858,1.847l3.794,4.311c-0.038,0.718-0.054,1.441-0.032,2.172c0.316,10.67,6.947,19.661,16.201,23.513l1.872,4.922l3.736-3.287
		c1.706,0.293,3.466,0.423,5.264,0.369c10.388-0.308,19.188-6.598,23.201-15.47L68.219,47L65.128,43.493z"/>
</g>
</svg>
