<?xml version="1.0" encoding="utf-8"?>
<!-- Generator: Adobe Illustrator 17.0.0, SVG Export Plug-In . SVG Version: 6.00 Build 0)  -->
<!DOCTYPE svg PUBLIC "-//W3C//DTD SVG 1.1//EN" "http://www.w3.org/Graphics/SVG/1.1/DTD/svg11.dtd">
<svg version="1.1" id="Layer_1" xmlns="http://www.w3.org/2000/svg" xmlns:xlink="http://www.w3.org/1999/xlink" x="0px" y="0px"
	 width="74.68px" height="74.359px" viewBox="0 0 74.68 74.359" enable-background="new 0 0 74.68 74.359" xml:space="preserve">
<g>
	<path fill="#3E204A" d="M58.167,21.187c-0.768-0.921-1.599-1.786-2.484-2.593C56.568,19.401,57.399,20.267,58.167,21.187z"/>
	<path fill="#3E204A" d="M54.613,17.664c-1.307-1.07-2.717-2.016-4.214-2.821l0,0C51.895,15.649,53.306,16.595,54.613,17.664z"/>
	<polygon fill="#3E204A" points="51.055,23.218 46.506,7.128 48.414,13.879 	"/>
	<path fill="#3E204A" d="M25.077,25.444c-0.216,0.214-0.427,0.435-0.632,0.66C24.65,25.879,24.861,25.659,25.077,25.444
		L25.077,25.444z"/>
	<path fill="#3E204A" d="M51.055,23.218l-2.64-9.339l-1.908-6.751L32.105,21.09c1.677-0.566,3.463-0.899,5.325-0.954
		c5.854-0.173,11.144,2.424,14.621,6.601L51.055,23.218z"/>
	<path fill="#3E204A" d="M63.689,43.493c0.427-2.012,0.628-4.105,0.565-6.253c-0.016-0.548-0.055-1.089-0.104-1.628
		c-0.014-0.159-0.033-0.317-0.05-0.475c-0.044-0.4-0.096-0.798-0.158-1.192c-0.023-0.151-0.045-0.302-0.071-0.451
		c-0.091-0.526-0.194-1.048-0.315-1.562c-0.005-0.019-0.011-0.038-0.015-0.057c-0.119-0.498-0.255-0.989-0.402-1.474
		c-0.042-0.136-0.085-0.27-0.128-0.405c-0.127-0.395-0.262-0.787-0.407-1.174c-0.043-0.113-0.083-0.228-0.127-0.341
		c-0.387-0.994-0.833-1.958-1.333-2.888c-0.049-0.091-0.099-0.18-0.149-0.271c-0.226-0.408-0.46-0.81-0.706-1.204
		c-0.035-0.055-0.068-0.112-0.103-0.167c-0.585-0.921-1.225-1.802-1.916-2.64c-0.034-0.042-0.069-0.083-0.104-0.124
		c-0.769-0.92-1.599-1.786-2.484-2.593c-0.341-0.311-0.688-0.616-1.045-0.909c-0.008-0.007-0.017-0.014-0.025-0.021
		c-1.307-1.069-2.717-2.015-4.214-2.821l5.109,18.323c-0.002-0.006-0.004-0.012-0.006-0.018c0.002,0.007,0.005,0.015,0.008,0.023
		c0.032,0.108,0.061,0.217,0.091,0.326c0.02,0.072,0.041,0.143,0.06,0.215c0.024,0.091,0.048,0.181,0.071,0.272
		c0.077,0.308,0.146,0.619,0.208,0.933c0.002,0.008,0.004,0.016,0.005,0.024c0.057,0.291,0.105,0.585,0.147,0.88
		c0.005,0.035,0.012,0.068,0.016,0.103c0.037,0.269,0.066,0.542,0.091,0.815c0.005,0.058,0.013,0.115,0.018,0.173
		c0.027,0.325,0.046,0.653,0.056,0.983c0.3,10.108-7.652,18.545-17.761,18.845C28.405,57.04,19.969,49.088,19.669,38.98
		c-0.01-0.322-0.01-0.643-0.003-0.962c0.002-0.106,0.01-0.21,0.015-0.316c0.008-0.213,0.016-0.428,0.032-0.64
		c0.008-0.116,0.023-0.23,0.034-0.346c0.019-0.2,0.036-0.399,0.062-0.597c0.015-0.117,0.035-0.232,0.052-0.349
		c0.029-0.194,0.056-0.389,0.091-0.582c0.02-0.112,0.044-0.223,0.067-0.334c0.039-0.196,0.077-0.391,0.123-0.583
		c0.024-0.105,0.052-0.208,0.079-0.312c0.05-0.197,0.101-0.395,0.157-0.591c0.028-0.096,0.058-0.191,0.088-0.287
		c0.062-0.202,0.125-0.402,0.194-0.601c0.029-0.087,0.062-0.172,0.093-0.258c0.074-0.206,0.151-0.41,0.232-0.612
		c0.031-0.077,0.063-0.152,0.095-0.229c0.088-0.21,0.179-0.419,0.274-0.625c0.03-0.065,0.062-0.13,0.093-0.196
		c0.102-0.214,0.208-0.427,0.319-0.637c0.029-0.055,0.058-0.11,0.088-0.165c0.118-0.218,0.24-0.434,0.366-0.647
		c0.026-0.044,0.052-0.088,0.079-0.132c0.134-0.222,0.273-0.441,0.417-0.657c0.022-0.033,0.044-0.066,0.066-0.099
		c0.152-0.225,0.309-0.447,0.47-0.666c0.016-0.022,0.032-0.044,0.049-0.066c0.171-0.228,0.347-0.452,0.528-0.673
		c0.009-0.011,0.018-0.023,0.028-0.034c0.19-0.23,0.385-0.456,0.586-0.676c0.001-0.002,0.003-0.004,0.005-0.006
		c0.205-0.225,0.416-0.446,0.632-0.66l-0.034-0.01l14.214-13.683c-0.005-0.001-0.01-0.001-0.014-0.001
		c-0.321-0.015-0.644-0.026-0.968-0.032c-0.363-0.006-0.727-0.006-1.094,0.005c-11.624,0.344-21.257,8.183-24.42,18.743
		l-4.858,1.847l3.794,4.311c-0.038,0.718-0.054,1.441-0.032,2.172c0.316,10.67,6.947,19.661,16.201,23.513l1.872,4.922l3.735-3.287
		c1.706,0.293,3.466,0.423,5.264,0.369c10.388-0.308,19.188-6.598,23.201-15.47l4.838-1.841L63.689,43.493z"/>
</g>
</svg>
